<svg width="835" height="382" viewBox="0 0 835 382" fill="none" xmlns="http://www.w3.org/2000/svg">
<path d="M285.394 181.2C296.06 181.2 305.927 179.467 314.994 176C323.927 172.4 331.727 167.4 338.394 161C344.927 154.6 350.06 147.067 353.794 138.4C357.394 129.733 359.194 120.267 359.194 110C359.194 99.7333 357.394 90.2667 353.794 81.6C350.06 72.9333 344.86 65.4 338.194 59C331.527 52.6 323.727 47.6667 314.794 44.2C305.727 40.6 295.86 38.8 285.194 38.8C274.527 38.8 264.794 40.4667 255.994 43.8C247.06 47.1333 239.46 52.2 233.194 59L242.394 68.4C248.26 62.5333 254.727 58.3333 261.794 55.8C268.86 53.2667 276.46 52 284.594 52C293.26 52 301.26 53.4667 308.594 56.4C315.794 59.2 322.127 63.2667 327.594 68.6C332.927 73.8 337.127 79.9333 340.194 87C343.127 93.9333 344.594 101.6 344.594 110C344.594 118.267 343.127 125.933 340.194 133C337.127 140.067 332.927 146.267 327.594 151.6C322.127 156.8 315.794 160.867 308.594 163.8C301.26 166.6 293.327 168 284.794 168C276.794 168 269.26 166.8 262.194 164.4C254.994 162 248.394 157.933 242.394 152.2L233.994 163.4C240.66 169.267 248.46 173.733 257.394 176.8C266.327 179.733 275.66 181.2 285.394 181.2ZM248.194 161.6V110L233.994 110V163.4L248.194 161.6Z" fill="black"/>
<path d="M65.9455 295.851C62.5855 295.851 59.4775 295.305 56.6215 294.213C53.8075 293.079 51.3505 291.504 49.2505 289.488C47.1925 287.472 45.5755 285.099 44.3995 282.369C43.2655 279.639 42.6985 276.657 42.6985 273.423C42.6985 270.189 43.2655 267.207 44.3995 264.477C45.5755 261.747 47.2135 259.374 49.3135 257.358C51.4135 255.342 53.8705 253.788 56.6845 252.696C59.5405 251.562 62.6485 250.995 66.0085 250.995C69.3685 250.995 72.4345 251.52 75.2065 252.57C78.0205 253.62 80.4145 255.216 82.3885 257.358L79.4905 260.319C77.6425 258.471 75.6055 257.148 73.3795 256.35C71.1535 255.552 68.7595 255.153 66.1975 255.153C63.4675 255.153 60.9475 255.615 58.6375 256.539C56.3695 257.421 54.3745 258.702 52.6525 260.382C50.9725 262.02 49.6495 263.952 48.6835 266.178C47.7595 268.362 47.2975 270.777 47.2975 273.423C47.2975 276.027 47.7595 278.442 48.6835 280.668C49.6495 282.894 50.9725 284.847 52.6525 286.527C54.3745 288.165 56.3695 289.446 58.6375 290.37C60.9475 291.252 63.4465 291.693 66.1345 291.693C68.6545 291.693 71.0275 291.315 73.2535 290.559C75.5215 289.803 77.6005 288.522 79.4905 286.716L82.1365 290.244C80.0365 292.092 77.5795 293.499 74.7655 294.465C71.9515 295.389 69.0115 295.851 65.9455 295.851ZM77.6635 289.677V273.423H82.1365V290.244L77.6635 289.677ZM114.987 295.851C109.359 295.851 104.928 294.234 101.694 291C98.46 287.766 96.843 282.978 96.843 276.636V251.373H101.505V276.447C101.505 281.655 102.681 285.498 105.033 287.976C107.385 290.454 110.703 291.693 114.987 291.693C119.313 291.693 122.652 290.454 125.004 287.976C127.356 285.498 128.532 281.655 128.532 276.447V251.373H133.068V276.636C133.068 282.978 131.451 287.766 128.217 291C125.025 294.234 120.615 295.851 114.987 295.851ZM149.007 295.473V251.373H165.513C169.251 251.373 172.464 251.982 175.152 253.2C177.84 254.376 179.898 256.098 181.326 258.366C182.796 260.592 183.531 263.301 183.531 266.493C183.531 269.601 182.796 272.289 181.326 274.557C179.898 276.783 177.84 278.505 175.152 279.723C172.464 280.941 169.251 281.55 165.513 281.55H151.59L153.669 279.345V295.473H149.007ZM153.669 279.723L151.59 277.455H165.387C169.797 277.455 173.136 276.51 175.404 274.62C177.714 272.688 178.869 269.979 178.869 266.493C178.869 262.965 177.714 260.235 175.404 258.303C173.136 256.371 169.797 255.405 165.387 255.405H151.59L153.669 253.2V279.723ZM202.592 295.473V255.405H187.094V251.373H222.752V255.405H207.254V295.473H202.592ZM222.819 295.473L242.979 251.373H247.578L267.738 295.473H262.824L244.302 254.082H246.192L227.67 295.473H222.819ZM230.757 283.692L232.143 279.912H257.784L259.17 283.692H230.757ZM314.454 295.851C311.136 295.851 308.07 295.305 305.256 294.213C302.442 293.079 300.006 291.504 297.948 289.488C295.89 287.472 294.273 285.099 293.097 282.369C291.963 279.639 291.396 276.657 291.396 273.423C291.396 270.189 291.963 267.207 293.097 264.477C294.273 261.747 295.89 259.374 297.948 257.358C300.048 255.342 302.505 253.788 305.319 252.696C308.133 251.562 311.199 250.995 314.517 250.995C317.709 250.995 320.712 251.541 323.526 252.633C326.34 253.683 328.713 255.279 330.645 257.421L327.684 260.382C325.878 258.534 323.883 257.211 321.699 256.413C319.515 255.573 317.163 255.153 314.643 255.153C311.997 255.153 309.54 255.615 307.272 256.539C305.004 257.421 303.03 258.702 301.35 260.382C299.67 262.02 298.347 263.952 297.381 266.178C296.457 268.362 295.995 270.777 295.995 273.423C295.995 276.069 296.457 278.505 297.381 280.731C298.347 282.915 299.67 284.847 301.35 286.527C303.03 288.165 305.004 289.446 307.272 290.37C309.54 291.252 311.997 291.693 314.643 291.693C317.163 291.693 319.515 291.273 321.699 290.433C323.883 289.593 325.878 288.249 327.684 286.401L330.645 289.362C328.713 291.504 326.34 293.121 323.526 294.213C320.712 295.305 317.688 295.851 314.454 295.851ZM360.828 295.851C357.51 295.851 354.423 295.305 351.567 294.213C348.753 293.079 346.296 291.504 344.196 289.488C342.138 287.43 340.521 285.057 339.345 282.369C338.211 279.639 337.644 276.657 337.644 273.423C337.644 270.189 338.211 267.228 339.345 264.54C340.521 261.81 342.138 259.437 344.196 257.421C346.296 255.363 348.753 253.788 351.567 252.696C354.381 251.562 357.468 250.995 360.828 250.995C364.146 250.995 367.212 251.562 370.026 252.696C372.84 253.788 375.276 255.342 377.334 257.358C379.434 259.374 381.051 261.747 382.185 264.477C383.361 267.207 383.949 270.189 383.949 273.423C383.949 276.657 383.361 279.639 382.185 282.369C381.051 285.099 379.434 287.472 377.334 289.488C375.276 291.504 372.84 293.079 370.026 294.213C367.212 295.305 364.146 295.851 360.828 295.851ZM360.828 291.693C363.474 291.693 365.91 291.252 368.136 290.37C370.404 289.446 372.357 288.165 373.995 286.527C375.675 284.847 376.977 282.915 377.901 280.731C378.825 278.505 379.287 276.069 379.287 273.423C379.287 270.777 378.825 268.362 377.901 266.178C376.977 263.952 375.675 262.02 373.995 260.382C372.357 258.702 370.404 257.421 368.136 256.539C365.91 255.615 363.474 255.153 360.828 255.153C358.182 255.153 355.725 255.615 353.457 256.539C351.189 257.421 349.215 258.702 347.535 260.382C345.897 262.02 344.595 263.952 343.629 266.178C342.705 268.362 342.243 270.777 342.243 273.423C342.243 276.027 342.705 278.442 343.629 280.668C344.595 282.894 345.897 284.847 347.535 286.527C349.215 288.165 351.189 289.446 353.457 290.37C355.725 291.252 358.182 291.693 360.828 291.693ZM396.289 295.473V251.373H412.795C416.533 251.373 419.746 251.982 422.434 253.2C425.122 254.376 427.18 256.098 428.608 258.366C430.078 260.592 430.813 263.301 430.813 266.493C430.813 269.601 430.078 272.289 428.608 274.557C427.18 276.783 425.122 278.505 422.434 279.723C419.746 280.899 416.533 281.487 412.795 281.487H398.872L400.951 279.345V295.473H396.289ZM426.403 295.473L415.063 279.471H420.103L431.506 295.473H426.403ZM400.951 279.723L398.872 277.518H412.669C417.079 277.518 420.418 276.552 422.686 274.62C424.996 272.688 426.151 269.979 426.151 266.493C426.151 262.965 424.996 260.235 422.686 258.303C420.418 256.371 417.079 255.405 412.669 255.405H398.872L400.951 253.2V279.723ZM443.706 295.473V251.373H460.212C463.95 251.373 467.163 251.982 469.851 253.2C472.539 254.376 474.597 256.098 476.025 258.366C477.495 260.592 478.23 263.301 478.23 266.493C478.23 269.601 477.495 272.289 476.025 274.557C474.597 276.783 472.539 278.505 469.851 279.723C467.163 280.941 463.95 281.55 460.212 281.55H446.289L448.368 279.345V295.473H443.706ZM448.368 279.723L446.289 277.455H460.086C464.496 277.455 467.835 276.51 470.103 274.62C472.413 272.688 473.568 269.979 473.568 266.493C473.568 262.965 472.413 260.235 470.103 258.303C467.835 256.371 464.496 255.405 460.086 255.405H446.289L448.368 253.2V279.723ZM510.094 295.851C506.776 295.851 503.689 295.305 500.833 294.213C498.019 293.079 495.562 291.504 493.462 289.488C491.404 287.43 489.787 285.057 488.611 282.369C487.477 279.639 486.91 276.657 486.91 273.423C486.91 270.189 487.477 267.228 488.611 264.54C489.787 261.81 491.404 259.437 493.462 257.421C495.562 255.363 498.019 253.788 500.833 252.696C503.647 251.562 506.734 250.995 510.094 250.995C513.412 250.995 516.478 251.562 519.292 252.696C522.106 253.788 524.542 255.342 526.6 257.358C528.7 259.374 530.317 261.747 531.451 264.477C532.627 267.207 533.215 270.189 533.215 273.423C533.215 276.657 532.627 279.639 531.451 282.369C530.317 285.099 528.7 287.472 526.6 289.488C524.542 291.504 522.106 293.079 519.292 294.213C516.478 295.305 513.412 295.851 510.094 295.851ZM510.094 291.693C512.74 291.693 515.176 291.252 517.402 290.37C519.67 289.446 521.623 288.165 523.261 286.527C524.941 284.847 526.243 282.915 527.167 280.731C528.091 278.505 528.553 276.069 528.553 273.423C528.553 270.777 528.091 268.362 527.167 266.178C526.243 263.952 524.941 262.02 523.261 260.382C521.623 258.702 519.67 257.421 517.402 256.539C515.176 255.615 512.74 255.153 510.094 255.153C507.448 255.153 504.991 255.615 502.723 256.539C500.455 257.421 498.481 258.702 496.801 260.382C495.163 262.02 493.861 263.952 492.895 266.178C491.971 268.362 491.509 270.777 491.509 273.423C491.509 276.027 491.971 278.442 492.895 280.668C493.861 282.894 495.163 284.847 496.801 286.527C498.481 288.165 500.455 289.446 502.723 290.37C504.991 291.252 507.448 291.693 510.094 291.693ZM545.555 295.473V251.373H562.061C565.799 251.373 569.012 251.982 571.7 253.2C574.388 254.376 576.446 256.098 577.874 258.366C579.344 260.592 580.079 263.301 580.079 266.493C580.079 269.601 579.344 272.289 577.874 274.557C576.446 276.783 574.388 278.505 571.7 279.723C569.012 280.899 565.799 281.487 562.061 281.487H548.138L550.217 279.345V295.473H545.555ZM575.669 295.473L564.329 279.471H569.369L580.772 295.473H575.669ZM550.217 279.723L548.138 277.518H561.935C566.345 277.518 569.684 276.552 571.952 274.62C574.262 272.688 575.417 269.979 575.417 266.493C575.417 262.965 574.262 260.235 571.952 258.303C569.684 256.371 566.345 255.405 561.935 255.405H548.138L550.217 253.2V279.723ZM585.916 295.473L606.076 251.373H610.675L630.835 295.473H625.921L607.399 254.082H609.289L590.767 295.473H585.916ZM593.854 283.692L595.24 279.912H620.881L622.267 283.692H593.854ZM646.373 295.473V255.405H630.875V251.373H666.533V255.405H651.035V295.473H646.373ZM675.871 295.473V251.373H680.533V295.473H675.871ZM716.05 295.851C712.732 295.851 709.645 295.305 706.789 294.213C703.975 293.079 701.518 291.504 699.418 289.488C697.36 287.43 695.743 285.057 694.567 282.369C693.433 279.639 692.866 276.657 692.866 273.423C692.866 270.189 693.433 267.228 694.567 264.54C695.743 261.81 697.36 259.437 699.418 257.421C701.518 255.363 703.975 253.788 706.789 252.696C709.603 251.562 712.69 250.995 716.05 250.995C719.368 250.995 722.434 251.562 725.248 252.696C728.062 253.788 730.498 255.342 732.556 257.358C734.656 259.374 736.273 261.747 737.407 264.477C738.583 267.207 739.171 270.189 739.171 273.423C739.171 276.657 738.583 279.639 737.407 282.369C736.273 285.099 734.656 287.472 732.556 289.488C730.498 291.504 728.062 293.079 725.248 294.213C722.434 295.305 719.368 295.851 716.05 295.851ZM716.05 291.693C718.696 291.693 721.132 291.252 723.358 290.37C725.626 289.446 727.579 288.165 729.217 286.527C730.897 284.847 732.199 282.915 733.123 280.731C734.047 278.505 734.509 276.069 734.509 273.423C734.509 270.777 734.047 268.362 733.123 266.178C732.199 263.952 730.897 262.02 729.217 260.382C727.579 258.702 725.626 257.421 723.358 256.539C721.132 255.615 718.696 255.153 716.05 255.153C713.404 255.153 710.947 255.615 708.679 256.539C706.411 257.421 704.437 258.702 702.757 260.382C701.119 262.02 699.817 263.952 698.851 266.178C697.927 268.362 697.465 270.777 697.465 273.423C697.465 276.027 697.927 278.442 698.851 280.668C699.817 282.894 701.119 284.847 702.757 286.527C704.437 288.165 706.411 289.446 708.679 290.37C710.947 291.252 713.404 291.693 716.05 291.693ZM751.51 295.473V251.373H755.353L785.782 289.677H783.766V251.373H788.365V295.473H784.522L754.156 257.169H756.172V295.473H751.51Z" fill="black"/>
<path d="M480.61 181.2C470.076 181.2 460.343 179.467 451.41 176C442.476 172.4 434.743 167.4 428.21 161C421.676 154.6 416.543 147.067 412.81 138.4C409.21 129.733 407.41 120.267 407.41 110C407.41 99.7333 409.21 90.2667 412.81 81.6C416.543 72.9333 421.676 65.4 428.21 59C434.876 52.6 442.676 47.6667 451.61 44.2C460.543 40.6 470.276 38.8 480.81 38.8C490.943 38.8 500.476 40.5333 509.41 44C518.343 47.3333 525.876 52.4 532.01 59.2L522.61 68.6C516.876 62.7333 510.543 58.5333 503.61 56C496.676 53.3333 489.21 52 481.21 52C472.81 52 465.01 53.4667 457.81 56.4C450.61 59.2 444.343 63.2667 439.01 68.6C433.676 73.8 429.476 79.9333 426.41 87C423.476 93.9333 422.01 101.6 422.01 110C422.01 118.4 423.476 126.133 426.41 133.2C429.476 140.133 433.676 146.267 439.01 151.6C444.343 156.8 450.61 160.867 457.81 163.8C465.01 166.6 472.81 168 481.21 168C489.21 168 496.676 166.667 503.61 164C510.543 161.333 516.876 157.067 522.61 151.2L532.01 160.6C525.876 167.4 518.343 172.533 509.41 176C500.476 179.467 490.876 181.2 480.61 181.2Z" fill="black"/>
</svg>
