<svg width="264" height="137" viewBox="0 0 264 137" fill="none" xmlns="http://www.w3.org/2000/svg">
<path d="M35.9682 0.940162C23.3016 2.94016 7.16823 10.6735 1.4349 17.6068C-0.165104 19.4735 0.234896 20.2735 3.8349 23.8735L7.96823 28.0068L12.3682 24.6735C35.9682 6.6735 72.2349 9.60683 91.9682 30.9402C103.035 43.0735 108.102 60.2735 105.435 77.2068C101.035 105.607 79.0349 123.607 48.7682 123.607C36.5016 123.607 22.7682 120.14 16.9016 115.474L13.4349 112.807V90.8068V68.9402H6.76823H0.101562V94.6735V120.274L6.50156 124.54C15.0349 130.14 21.0349 132.54 32.7682 134.94C58.7682 140.274 83.9682 133.474 100.768 116.407C114.235 102.674 120.102 88.2735 120.102 68.2735C120.102 48.5402 113.968 33.4735 100.768 20.4068C84.9016 4.80683 59.5682 -2.79317 35.9682 0.940162Z" fill="black"/>
<path d="M204.77 0.404412C175.57 4.93775 152.77 24.0044 146.103 49.6044C143.57 59.7377 143.57 76.8044 146.103 86.9377C155.303 122.138 191.703 143.071 229.836 134.938C241.436 132.538 251.303 128.004 258.103 121.871L263.436 117.071L259.17 112.804L254.77 108.404L251.17 111.338C249.036 113.071 243.57 116.271 238.77 118.671C230.503 122.804 229.436 122.938 214.103 122.938C198.636 122.938 197.703 122.804 189.17 118.538C172.37 110.271 161.703 95.8711 158.636 77.2044C153.97 48.8044 171.303 22.2711 199.303 14.8044C215.17 10.5377 235.703 14.0044 247.436 22.9377C250.77 25.4711 253.97 27.6044 254.503 27.6044C255.17 27.6044 257.303 25.8711 259.436 23.6044C262.77 20.1377 262.903 19.4711 261.303 17.4711C258.103 13.4711 246.103 6.53775 237.836 3.73775C229.836 1.07108 212.37 -0.662255 204.77 0.404412Z" fill="black"/>
</svg>
